<svg version="1.2" xmlns="http://www.w3.org/2000/svg" viewBox="0 0 3710 3710" width="500" height="500">
	<title>20943839-ai</title>
	<defs>
		<linearGradient id="g1" x1="2436.3" y1="4759.5" x2="113.3" y2="1874.4" gradientUnits="userSpaceOnUse">
			<stop offset="0" stop-color="#dae3fe"/>
			<stop offset="1" stop-color="#e9effd"/>
		</linearGradient>
		<linearGradient id="g2" x1="2287.4" y1="2454.2" x2="2287.4" y2="3665.5" gradientUnits="userSpaceOnUse">
			<stop offset="0" stop-color="#09005d"/>
			<stop offset="1" stop-color="#1a0f91"/>
		</linearGradient>
		<linearGradient id="g3" x1="3249.3" y1="508.1" x2="3269.3" y2="2570.1" gradientUnits="userSpaceOnUse">
			<stop offset="0" stop-color="#09005d"/>
			<stop offset="1" stop-color="#1a0f91"/>
		</linearGradient>
		<linearGradient id="g4" x1="2562.1" y1="2160.7" x2="2475" y2="3206.2" gradientUnits="userSpaceOnUse">
			<stop offset="0" stop-color="#09005d"/>
			<stop offset="1" stop-color="#1a0f91"/>
		</linearGradient>
		<linearGradient id="g5" x1="1503.5" y1="1792.9" x2="2373.4" y2="1182" gradientUnits="userSpaceOnUse">
			<stop offset="0" stop-color="#ff928e"/>
			<stop offset="1" stop-color="#fe7062"/>
		</linearGradient>
		<linearGradient id="g6" x1="2691.6" y1="2435.3" x2="2914" y2="1864.4" gradientUnits="userSpaceOnUse">
			<stop offset="0" stop-color="#09005d"/>
			<stop offset="1" stop-color="#1a0f91"/>
		</linearGradient>
		<linearGradient id="g7" x1="2670.2" y1="1923.8" x2="2864.2" y2="2361.8" gradientUnits="userSpaceOnUse">
			<stop offset="0" stop-color="#febbba"/>
			<stop offset="1" stop-color="#ff928e"/>
		</linearGradient>
		<linearGradient id="g8" x1="2690.8" y1="1895.6" x2="2902.1" y2="2372.6" gradientUnits="userSpaceOnUse">
			<stop offset="0" stop-color="#febbba"/>
			<stop offset="1" stop-color="#ff928e"/>
		</linearGradient>
		<linearGradient id="g9" x1="3198.3" y1="2889.4" x2="3212.4" y2="3239" gradientUnits="userSpaceOnUse">
			<stop offset="0" stop-color="#4f52ff"/>
			<stop offset="1" stop-color="#4042e2"/>
		</linearGradient>
		<linearGradient id="g10" x1="2825.8" y1="3441.9" x2="2918.3" y2="2360.1" gradientUnits="userSpaceOnUse">
			<stop offset="0" stop-color="#febbba"/>
			<stop offset="1" stop-color="#ff928e"/>
		</linearGradient>
		<linearGradient id="g11" x1="2968.3" y1="2858.4" x2="2946.5" y2="3253.1" gradientUnits="userSpaceOnUse">
			<stop offset="0" stop-color="#4f52ff"/>
			<stop offset="1" stop-color="#4042e2"/>
		</linearGradient>
		<linearGradient id="g12" x1="2945.4" y1="3441.1" x2="3033.9" y2="2406.5" gradientUnits="userSpaceOnUse">
			<stop offset="0" stop-color="#febbba"/>
			<stop offset="1" stop-color="#ff928e"/>
		</linearGradient>
		<linearGradient id="g13" x1="3098.6" y1="2239.6" x2="2842.1" y2="2598" gradientUnits="userSpaceOnUse">
			<stop offset="0" stop-color="#ff928e"/>
			<stop offset="1" stop-color="#fe7062"/>
		</linearGradient>
		<linearGradient id="g14" x1="3329.8" y1="2470.7" x2="2841.6" y2="3129.1" gradientUnits="userSpaceOnUse">
			<stop offset="0" stop-color="#4f52ff"/>
			<stop offset="1" stop-color="#4042e2"/>
		</linearGradient>
		<linearGradient id="g15" x1="2821.5" y1="2368.6" x2="2838.3" y2="2245.6" gradientUnits="userSpaceOnUse">
			<stop offset="0" stop-color="#febbba"/>
			<stop offset="1" stop-color="#ff928e"/>
		</linearGradient>
		<linearGradient id="g16" x1="2956" y1="2089.8" x2="2939.7" y2="2490.5" gradientUnits="userSpaceOnUse">
			<stop offset="0" stop-color="#febbba"/>
			<stop offset="1" stop-color="#ff928e"/>
		</linearGradient>
		<linearGradient id="g17" x1="2606.2" y1="2083.1" x2="2592" y2="2432.5" gradientUnits="userSpaceOnUse">
			<stop offset="0" stop-color="#febbba"/>
			<stop offset="1" stop-color="#ff928e"/>
		</linearGradient>
		<linearGradient id="g18" x1="2893.1" y1="2072.1" x2="2958" y2="2205.8" gradientUnits="userSpaceOnUse">
			<stop offset="0" stop-color="#febbba"/>
			<stop offset="1" stop-color="#ff928e"/>
		</linearGradient>
		<linearGradient id="g19" x1="2705.3" y1="2439.1" x2="2924.3" y2="1876.9" gradientUnits="userSpaceOnUse">
			<stop offset="0" stop-color="#09005d"/>
			<stop offset="1" stop-color="#1a0f91"/>
		</linearGradient>
		<linearGradient id="g20" x1="2901.7" y1="2098.2" x2="2951.2" y2="2200.3" gradientUnits="userSpaceOnUse">
			<stop offset="0" stop-color="#febbba"/>
			<stop offset="1" stop-color="#ff928e"/>
		</linearGradient>
		<linearGradient id="g21" x1="1693.9" y1="1915.6" x2="1703.9" y2="2437.2" gradientUnits="userSpaceOnUse">
			<stop offset="0" stop-color="#ff928e"/>
			<stop offset="1" stop-color="#fe7062"/>
		</linearGradient>
		<linearGradient id="g22" x1="531.7" y1="3942" x2="502.3" y2="3341.1" gradientUnits="userSpaceOnUse">
			<stop offset="0" stop-color="#4f52ff"/>
			<stop offset="1" stop-color="#4042e2"/>
		</linearGradient>
		<linearGradient id="g23" x1="1424.9" y1="1972.1" x2="1290.6" y2="2163" gradientUnits="userSpaceOnUse">
			<stop offset="0" stop-color="#09005d"/>
			<stop offset="1" stop-color="#1a0f91"/>
		</linearGradient>
		<linearGradient id="g24" x1="1710.3" y1="1728.6" x2="1430.4" y2="2415" gradientUnits="userSpaceOnUse">
			<stop offset="0" stop-color="#ff928e"/>
			<stop offset="1" stop-color="#fe7062"/>
		</linearGradient>
		<linearGradient id="g25" x1="993.6" y1="2350.3" x2="1243.2" y2="2953" gradientUnits="userSpaceOnUse">
			<stop offset="0" stop-color="#febbba"/>
			<stop offset="1" stop-color="#ff928e"/>
		</linearGradient>
		<linearGradient id="g26" x1="1378.8" y1="2350.3" x2="1129.3" y2="2953" gradientUnits="userSpaceOnUse">
			<stop offset="0" stop-color="#febbba"/>
			<stop offset="1" stop-color="#ff928e"/>
		</linearGradient>
		<linearGradient id="g27" x1="1334" y1="2452" x2="1321" y2="2977.3" gradientUnits="userSpaceOnUse">
			<stop offset="0" stop-color="#09005d"/>
			<stop offset="1" stop-color="#1a0f91"/>
		</linearGradient>
		<linearGradient id="g28" x1="1335.8" y1="2730.4" x2="1466.4" y2="2731.4" gradientUnits="userSpaceOnUse">
			<stop offset="0" stop-color="#09005d"/>
			<stop offset="1" stop-color="#1a0f91"/>
		</linearGradient>
		<linearGradient id="g29" x1="1449.2" y1="2529" x2="1306.2" y2="2916.3" gradientUnits="userSpaceOnUse">
			<stop offset="0" stop-color="#febbba"/>
			<stop offset="1" stop-color="#ff928e"/>
		</linearGradient>
		<linearGradient id="g30" x1="1005.3" y1="2730.3" x2="874.8" y2="2727.7" gradientUnits="userSpaceOnUse">
			<stop offset="0" stop-color="#09005d"/>
			<stop offset="1" stop-color="#1a0f91"/>
		</linearGradient>
		<linearGradient id="g31" x1="1161.1" y1="2411.4" x2="1017.7" y2="2800" gradientUnits="userSpaceOnUse">
			<stop offset="0" stop-color="#febbba"/>
			<stop offset="1" stop-color="#ff928e"/>
		</linearGradient>
		<linearGradient id="g32" x1="1546.5" y1="2616.5" x2="1184.8" y2="2888.2" gradientUnits="userSpaceOnUse">
			<stop offset="0" stop-color="#4f52ff"/>
			<stop offset="1" stop-color="#4042e2"/>
		</linearGradient>
		<linearGradient id="g33" x1="967.6" y1="2833.6" x2="874.1" y2="2595" gradientUnits="userSpaceOnUse">
			<stop offset="0" stop-color="#4f52ff"/>
			<stop offset="1" stop-color="#4042e2"/>
		</linearGradient>
		<linearGradient id="g34" x1="1106.6" y1="2419" x2="1103.3" y2="2133.1" gradientUnits="userSpaceOnUse">
			<stop offset="0" stop-color="#febbba"/>
			<stop offset="1" stop-color="#ff928e"/>
		</linearGradient>
		<linearGradient id="g35" x1="1117.5" y1="2223.7" x2="1162.8" y2="2003.1" gradientUnits="userSpaceOnUse">
			<stop offset="0" stop-color="#febbba"/>
			<stop offset="1" stop-color="#ff928e"/>
		</linearGradient>
		<linearGradient id="g36" x1="1412.4" y1="1941.5" x2="1261.5" y2="2156" gradientUnits="userSpaceOnUse">
			<stop offset="0" stop-color="#09005d"/>
			<stop offset="1" stop-color="#1a0f91"/>
		</linearGradient>
		<linearGradient id="g37" x1="1123.4" y1="2255.6" x2="1098.2" y2="1983.7" gradientUnits="userSpaceOnUse">
			<stop offset="0" stop-color="#febbba"/>
			<stop offset="1" stop-color="#ff928e"/>
		</linearGradient>
		<linearGradient id="g38" x1="3105.8" y1="1626.4" x2="3117.8" y2="1626.4" gradientUnits="userSpaceOnUse">
			<stop offset="0" stop-color="#4f52ff"/>
			<stop offset="1" stop-color="#4042e2"/>
		</linearGradient>
		<linearGradient id="g39" x1="2576.7" y1="1406.7" x2="3099.6" y2="1406.7" gradientUnits="userSpaceOnUse">
			<stop offset="0" stop-color="#4f52ff"/>
			<stop offset="1" stop-color="#4042e2"/>
		</linearGradient>
		<linearGradient id="g40" x1="2577.5" y1="1381.5" x2="2584.6" y2="1381.5" gradientUnits="userSpaceOnUse">
			<stop offset="0" stop-color="#4f52ff"/>
			<stop offset="1" stop-color="#4042e2"/>
		</linearGradient>
		<linearGradient id="g41" x1="2683.9" y1="1169.7" x2="2696.2" y2="1169.7" gradientUnits="userSpaceOnUse">
			<stop offset="0" stop-color="#4f52ff"/>
			<stop offset="1" stop-color="#4042e2"/>
		</linearGradient>
		<linearGradient id="g42" x1="2703.9" y1="1098.7" x2="3205.8" y2="1098.7" gradientUnits="userSpaceOnUse">
			<stop offset="0" stop-color="#4f52ff"/>
			<stop offset="1" stop-color="#4042e2"/>
		</linearGradient>
		<linearGradient id="g43" x1="3196.4" y1="1444" x2="3203.7" y2="1444" gradientUnits="userSpaceOnUse">
			<stop offset="0" stop-color="#4f52ff"/>
			<stop offset="1" stop-color="#4042e2"/>
		</linearGradient>
		<linearGradient id="g44" x1="2618.7" y1="1144" x2="3158.7" y2="1144" gradientUnits="userSpaceOnUse">
			<stop offset="0" stop-color="#4f52ff"/>
			<stop offset="1" stop-color="#4042e2"/>
		</linearGradient>
		<linearGradient id="g45" x1="2655.1" y1="1237" x2="2667.1" y2="1237" gradientUnits="userSpaceOnUse">
			<stop offset="0" stop-color="#4f52ff"/>
			<stop offset="1" stop-color="#4042e2"/>
		</linearGradient>
		<linearGradient id="g46" x1="2233.3" y1="1066.7" x2="2648.4" y2="1066.7" gradientUnits="userSpaceOnUse">
			<stop offset="0" stop-color="#4f52ff"/>
			<stop offset="1" stop-color="#4042e2"/>
		</linearGradient>
		<linearGradient id="g47" x1="2233.8" y1="1041.3" x2="2240.9" y2="1041.3" gradientUnits="userSpaceOnUse">
			<stop offset="0" stop-color="#4f52ff"/>
			<stop offset="1" stop-color="#4042e2"/>
		</linearGradient>
		<linearGradient id="g48" x1="2319" y1="870.9" x2="2331.4" y2="870.9" gradientUnits="userSpaceOnUse">
			<stop offset="0" stop-color="#4f52ff"/>
			<stop offset="1" stop-color="#4042e2"/>
		</linearGradient>
		<linearGradient id="g49" x1="2338.8" y1="815.1" x2="2737.5" y2="815.1" gradientUnits="userSpaceOnUse">
			<stop offset="0" stop-color="#4f52ff"/>
			<stop offset="1" stop-color="#4042e2"/>
		</linearGradient>
		<linearGradient id="g50" x1="2728.6" y1="1089.6" x2="2736" y2="1089.6" gradientUnits="userSpaceOnUse">
			<stop offset="0" stop-color="#4f52ff"/>
			<stop offset="1" stop-color="#4042e2"/>
		</linearGradient>
		<linearGradient id="g51" x1="2267.5" y1="852" x2="2699.1" y2="852" gradientUnits="userSpaceOnUse">
			<stop offset="0" stop-color="#4f52ff"/>
			<stop offset="1" stop-color="#4042e2"/>
		</linearGradient>
	</defs>
	<style>
		.s0 { fill: url(#g1) } 
		.s1 { fill: #91b3fa } 
		.s2 { mix-blend-mode: soft-light;fill: #ffffff } 
		.s3 { fill: #bdd0fb } 
		.s4 { fill: url(#g2) } 
		.s5 { fill: url(#g3) } 
		.s6 { fill: url(#g4) } 
		.s7 { opacity: .4;fill: #ffffff } 
		.s8 { opacity: .5;fill: #ffffff } 
		.s9 { opacity: .6;fill: #ffffff } 
		.s10 { opacity: .3;fill: #ffffff } 
		.s11 { fill: url(#g5) } 
		.s12 { opacity: .7;fill: #ffffff } 
		.s13 { fill: #ffffff } 
		.s14 { fill: url(#g6) } 
		.s15 { fill: url(#g7) } 
		.s16 { fill: url(#g8) } 
		.s17 { fill: url(#g9) } 
		.s18 { fill: url(#g10) } 
		.s19 { fill: url(#g11) } 
		.s20 { fill: url(#g12) } 
		.s21 { fill: url(#g13) } 
		.s22 { fill: url(#g14) } 
		.s23 { fill: url(#g15) } 
		.s24 { fill: url(#g16) } 
		.s25 { fill: url(#g17) } 
		.s26 { fill: url(#g18) } 
		.s27 { fill: url(#g19) } 
		.s28 { fill: url(#g20) } 
		.s29 { fill: url(#g21) } 
		.s30 { opacity: .8;fill: #ffffff } 
		.s31 { fill: url(#g22) } 
		.s32 { fill: #7d97f4 } 
		.s33 { fill: url(#g23) } 
		.s34 { fill: url(#g24) } 
		.s35 { fill: url(#g25) } 
		.s36 { fill: url(#g26) } 
		.s37 { fill: url(#g27) } 
		.s38 { fill: url(#g28) } 
		.s39 { fill: url(#g29) } 
		.s40 { fill: url(#g30) } 
		.s41 { fill: url(#g31) } 
		.s42 { fill: url(#g32) } 
		.s43 { fill: url(#g33) } 
		.s44 { fill: url(#g34) } 
		.s45 { fill: url(#g35) } 
		.s46 { fill: url(#g36) } 
		.s47 { fill: url(#g37) } 
		.s48 { fill: url(#g38) } 
		.s49 { fill: url(#g39) } 
		.s50 { fill: url(#g40) } 
		.s51 { fill: url(#g41) } 
		.s52 { fill: url(#g42) } 
		.s53 { fill: url(#g43) } 
		.s54 { fill: url(#g44) } 
		.s55 { fill: url(#g45) } 
		.s56 { fill: url(#g46) } 
		.s57 { fill: url(#g47) } 
		.s58 { fill: url(#g48) } 
		.s59 { fill: url(#g49) } 
		.s60 { fill: url(#g50) } 
		.s61 { fill: url(#g51) } 
	</style>
	<g id="Illustration">
		<g id="&lt;Group&gt;">
			<path id="&lt;Path&gt;" class="s0" d="m2890.5 2844.3c-55.9 58.9-108.8 96.8-150.6 126.8-491.1 352.4-1072.2 249.6-1195.7 224.6-182.4-37.1-534.9-108.7-789.8-408.4-385.6-453.5-325.5-1167.9-26.4-1639.5 54.7-86.2 343.7-565 931-641.8 355.5-46.4 769.9 47.3 1069.9 298.7 629.9 527.7 585.1 1593.8 161.6 2039.6z"/>
			<g id="&lt;Group&gt;">
				<path id="&lt;Path&gt;" class="s1" d="m482.8 468.8c-2.6-11 12.9-18.3 22.4-10.6 96.4 78.2 328.1 312.3 270.3 721.5-72.4 513.3 51.4 700.7 205.6 814.9 0 0-211.7-53.7-344.9-243.8-327-466.7-107.4-1086-153.4-1282z"/>
				<path id="&lt;Path&gt;" class="s2" d="m558.8 625.7c1.9-0.4 3.7 0.6 4.2 2.3 15 56.7 27.5 114 38.2 171.5 10.4 57.6 18.7 115.5 25 173.5q2.3 21.8 4.2 43.6c1.2 14.6 2.4 29.1 3.2 43.7q2.8 43.7 3.8 87.4c1.6 58.4 0.3 116.8-1.4 174.9-1.8 58.1-3.9 116 0.8 173.2 2.3 28.6 6.5 56.9 13.1 84.8 6.7 27.8 15.8 55.2 27.3 81.8 23.6 53.1 54.7 104.3 93.5 150.3 19.3 23 40.6 44.9 63.6 65.3 5.7 5.2 11.7 10.1 17.6 15.1 6 4.9 12 9.8 18.2 14.6 12.2 9.6 24.9 18.7 37.8 27.8h0.1c5.4 3.8 6.4 10.7 2.1 15.6-4.4 4.9-12.6 5.8-18.3 2-54.1-35.8-103.2-78.2-144-126-20.3-23.9-38.5-49.2-54.7-75.2-8-13.1-15.7-26.3-22.8-39.8-7.3-13.3-13.8-27.2-19.9-41-24.6-55.6-36.9-114.9-41.1-173.7-4.3-58.9-1.6-117.4 0.7-175.5 2.6-58.1 5-116 4.6-173.9-0.2-57.9-3.2-115.8-7.5-173.7-4.6-57.8-11.2-115.5-19.8-173.1-8.4-57.5-19.1-114.9-31.2-172-0.3-1.6 0.9-3.1 2.7-3.5z"/>
			</g>
			<g id="&lt;Group&gt;">
				<g id="&lt;Group&gt;">
					<path id="&lt;Path&gt;" class="s3" d="m732.5 1736.5c-11.8 12.5-32.6 8.9-39.7-6.8-39.2-86.6-128-341.6 18.6-635.4 123.9-248 167.4-394.3 182.6-462.1 3.2-14.3 22.9-16.2 28.8-2.8 65.4 148.3 238.1 652.5-190.3 1107.1z"/>
					<path id="&lt;Path&gt;" class="s2" d="m711.1 1727.3q-0.7 0.1-1.3 0.1c-3.8 0-6.7-3.1-6.7-6.8 0.1-4.2 8.3-425.3 164.9-778 1.5-3.4 5.5-4.9 8.9-3.4 3.4 1.5 4.9 5.4 3.4 8.8-155.5 350.2-163.6 768.6-163.7 772.8-0.1 3.3-2.4 6-5.5 6.5z"/>
				</g>
			</g>
			<g id="&lt;Group&gt;">
				<path id="&lt;Path&gt;" class="s4" d="m2194.9 2508.3l90.5 537.3h-695.1l60-537.3z"/>
				<path id="&lt;Path&gt;" class="s5" d="m615.3 1048.7c427.7-9.6 2094.1 28.7 2470.8 40.7 67.9 2.2 124.7 52.5 135.1 119.7 49.6 319.1 36.2 1006.6 27.9 1292.5-2.1 73.5-61.6 132.4-135.2 133.4-427.9 6.4-1999.9-21.8-2449.4-33.3-101.2-2.7-181.9-85.4-181.9-186.7v-1230.6c0-73.8 58.9-134 132.7-135.7z"/>
				<path id="&lt;Path&gt;" class="s1" d="m645.3 1095l2442.8 49.4c41.9 1 75.2 35.3 75.1 77.2l-4 1158.8c-0.2 58.6-48.3 105.7-106.8 104.8l-2386-29.5c-59.1-0.8-106.6-49-106.6-108.1v-1169.2c0-46.8 38.6-84.5 85.5-83.4z"/>
				<path id="&lt;Path&gt;" class="s1" d="m3177.2 2533.5q-0.1 0-0.1 0l-2617.3-44.6c-2 0-3.7-1.7-3.6-3.7 0-2.1 1.6-3.6 3.7-3.6l2617.3 44.6c2 0 3.7 1.7 3.6 3.7 0 2-1.6 3.6-3.6 3.6z"/>
				<path id="&lt;Path&gt;" class="s6" d="m2435.2 3155.5h-1017.4c-27.6 0-48.3-19.7-43-40.8l13.1-51.6c3.9-15.5 21-26.9 41.2-27.6l980.8-30.6c21.2-0.6 39.9 10.6 44.6 26.8l23.5 82.2c6.1 21.3-14.8 41.6-42.8 41.6z"/>
				<path id="&lt;Path&gt;" class="s1" d="m1965.5 3049.9c-2 0-3.6-1.6-3.7-3.6 0-2.1 1.6-3.7 3.6-3.8l42.1-0.6c2 0 3.6 1.6 3.7 3.6 0 2.1-1.6 3.7-3.6 3.8l-42.1 0.6q0 0 0 0z"/>
				<path id="&lt;Path&gt;" class="s1" d="m1412.5 3127.4q-0.3 0-0.6 0c-2-0.4-3.4-2.2-3.1-4.2l6-37.6c3.3-20.3 20.6-35.3 41.2-35.6l445.7-6.5c2-0.1 3.7 1.6 3.8 3.6 0 2-1.6 3.7-3.7 3.7l-445.7 6.5c-17 0.3-31.3 12.7-34 29.5l-6 37.5c-0.3 1.8-1.9 3.1-3.6 3.1z"/>
			</g>
			<g id="&lt;Group&gt;">
				<path id="&lt;Path&gt;" class="s7" d="m2643.5 1538.8h-265.2c-16.7 0-30.2-13.5-30.2-30.1 0-16.7 13.5-30.1 30.2-30.1h265.2c16.6 0 30.1 13.4 30.1 30.1 0 16.6-13.5 30.1-30.1 30.1z"/>
				<path id="&lt;Path&gt;" class="s7" d="m2741.1 1491.4h286.2c18 0 32.6 53.5 32.6 119.6v704.2c0 66-14.6 119.6-32.6 119.6h-286.2c-18 0-32.5-53.6-32.5-119.6v-704.2c0-66.1 14.5-119.6 32.5-119.6z"/>
				<path id="&lt;Path&gt;" class="s8" d="m2378.3 1572.3h265.2c16.6 0 30.1 13.5 30.1 30.2v177.5c0 16.6-13.5 30.1-30.1 30.1h-265.2c-16.7 0-30.2-13.5-30.2-30.1v-177.5c0-16.7 13.5-30.2 30.2-30.2z"/>
				<path id="&lt;Path&gt;" class="s7" d="m2378.3 1863.3h265.2c16.6 0 30.1 32.5 30.1 72.7v427.8c0 40.1-13.5 72.6-30.1 72.6h-265.2c-16.7 0-30.2-32.5-30.2-72.6v-427.8c0-40.2 13.5-72.7 30.2-72.7z"/>
				<path id="&lt;Path&gt;" class="s7" d="m3056.6 1441.2h-2375.8c-27.5 0-49.8-22.2-49.8-49.7v-198.2c0-28 23-50.5 51-49.8l2375.8 60.1c27 0.7 48.6 22.8 48.6 49.8v138.1c0 27.5-22.3 49.7-49.8 49.7z"/>
				<path id="&lt;Path&gt;" class="s9" d="m2261.8 2256h-800.5c-20.2 0-36.6-16.4-36.6-36.6v-682.7c0-20.2 16.4-36.6 36.6-36.6h800.5c20.1 0 36.5 16.4 36.5 36.6v682.7c0 20.2-16.4 36.6-36.5 36.6z"/>
				<path id="&lt;Path&gt;" class="s10" d="m2296 2448.9l-1646-13.8c-19.9-0.2-36-16.4-36-36.4v-58.1c0-27.7 22.5-50.2 50.2-50.2h1629.6c10.7 0 19.4 8.7 19.4 19.4v122.1c0 9.4-7.7 17.1-17.2 17z"/>
				<path id="&lt;Path&gt;" class="s8" d="m1339.6 2238.5h-691.2c-19 0-34.4-15.4-34.4-34.4v-691.1c0-19 15.4-34.4 34.4-34.4h691.2c19 0 34.4 15.4 34.4 34.4v691.1c0 19-15.4 34.4-34.4 34.4z"/>
			</g>
			<g id="&lt;Group&gt;">
				<g id="&lt;Group&gt;">
					<g id="&lt;Group&gt;">
						<path id="&lt;Path&gt;" class="s11" d="m1847.3 1557.2l778.4-7c15.3-0.1 27.7 12.3 27.6 27.5l-3.4 597.4c-0.1 15.4-12.7 27.6-28.1 27.2-140.8-4.2-765.7-22.7-793.3-21.6-27.2 1.2-12.4-478.7-8.3-597.1 0.5-14.6 12.4-26.3 27.1-26.4z"/>
						<path id="&lt;Compound Path&gt;" fill-rule="evenodd" class="s12" d="m2622.6 2179.8h-0.1c-111.9-3.4-674.9-20.1-778.7-21.5l-1.4-0.1-0.2-1.3c-9.8-55.1-9.6-279.8 0.5-572.5 0.1-2.6 2.2-4.7 4.8-4.7l778.4-7c1.7 0 2.9 0.8 3.5 1.5 0.9 0.9 1.4 2.1 1.4 3.4l-3.4 597.4c0 2.6-2.2 4.8-4.8 4.8zm-777.3-24.9c107.3 1.6 665.9 18.2 777.3 21.5h0.1c0.7 0 1.3-0.6 1.3-1.4l3.5-597.4c0-0.4-0.2-0.8-0.5-1.1q-0.4-0.4-1-0.4l-778.5 7c-0.8 0-1.4 0.6-1.5 1.4-9.9 290.1-10.2 513.3-0.7 570.4z"/>
					</g>
					<path id="&lt;Path&gt;" class="s13" d="m1924.3 2070.7l106.2-152.6c7.1-10.2 21.6-11.9 30.7-3.5l39.5 36.2c10.3 9.4 26.8 6.1 32.6-6.6l97.5-213.7c6.9-15.2 28-16.3 36.4-1.9l202 343.4c8.1 13.7-1.8 31-17.7 31h-510.3c-16.6 0-26.3-18.7-16.9-32.3z"/>
					<path id="&lt;Path&gt;" class="s13" d="m2518 1718.2c0 40.5-32.9 73.4-73.4 73.4-40.5 0-73.4-32.9-73.4-73.4 0-40.5 32.9-73.4 73.4-73.4 40.5 0 73.4 32.9 73.4 73.4z"/>
				</g>
				<g id="&lt;Group&gt;">
					<g id="&lt;Group&gt;">
						<path id="&lt;Path&gt;" class="s14" d="m3001.1 2460.2c-83.4 22.5-166.6-17-190.6-105.6-16.2-60.1-0.9-127.3 36.7-171.3 6.8-8 6.2-19.6-0.8-27.5-17.1-18.9-24.8-48.1-18.8-74.2 8.9-38.5 44.6-55.2 81.9-46.5 37.2 8.6 61.9 39.3 53 77.8q-0.1 0.2-0.1 0.3c-2.6 11.3 3.9 22.8 15.2 25.3 61.7 13.8 117.1 68.2 135 134.5 23.9 88.5-28.1 164.6-111.5 187.2z"/>
						<path id="&lt;Path&gt;" class="s1" d="m3086.6 2357.5l-1.6-1.2c15-21.2 16.9-51.7 5-79.8-9.4-22.3-26.2-42.6-53-64.1-9.9-8-20.5-15.6-30.7-22.9-12.3-8.9-25-18-36.8-27.9-10.6-9-21.8-20.1-24.1-34.6-1.2-7.2-0.1-14.9 1-22.3 1.6-11.7 3.2-22.7-3.7-31.1l1.6-1.3c7.4 9.1 5.7 21.1 4 32.6-1 7.3-2.1 14.9-1 21.8 2.3 13.9 13.1 24.7 23.5 33.4 11.7 9.8 24.4 19 36.7 27.8 10.2 7.3 20.8 14.9 30.8 23 27 21.6 44 42.2 53.6 64.8 12.1 28.7 10.1 60-5.3 81.8z"/>
						<path id="&lt;Path&gt;" class="s1" d="m3047 2370.3l-1.9-0.7c10.2-28.1 7.2-62.6-8.1-94.7-15.2-31.9-40.1-57.8-60.1-76.9l1.4-1.4c20.1 19.2 45.1 45.3 60.5 77.4 15.5 32.6 18.5 67.7 8.2 96.3z"/>
					</g>
					<path id="&lt;Path&gt;" class="s15" d="m2634.6 2010.3c0 0-15.2-17.7-11.1-27.6 4.1-9.9 19.7-128.6 19.7-128.6l27.1 54.7c4.4 8.7 4.3 18.9-0.1 27.6l-23.9 47.5 0.7 22.9z"/>
					<path id="&lt;Path&gt;" class="s16" d="m2646.3 1983.9c0 0 72.8 198.3 196.7 260.3 0 0-41.2 67.3-62.8 71.4 0 0-132.4-169.5-145.9-308.3z"/>
					<path id="&lt;Path&gt;" class="s17" d="m3155 3165.3h33.4c9.7 10.3 16.5 27.7 20.2 39.3 2 6.4 0.3 48.8-14.3 50.3-23.6 2.3-42-33.7-45.8-48l-3.7-30.1c-0.7-6.1 4.1-11.5 10.2-11.5z"/>
					<path id="&lt;Path&gt;" class="s18" d="m2923 2851.6l17.2 32.4c5.9 11.1 8.5 23.7 7.5 36.3l-17.9 213.9 13.7 18.8-1.7 10.2-83.3 49.2 32.8-53.3c6.2-10.2 9.3-22 8.8-34-3.3-76.4-22.2-267.4-22.2-267.4l5.6-33.2z"/>
					<path id="&lt;Path&gt;" class="s19" d="m2851.7 3206.1c5.6-1 10.8-0.3 10.8-0.3 0 0 42-29.6 55.7-37.8 13.7-8.3 16.3-27 16.3-27 11 5.8 17.1 17.9 15.1 30.2l-7.8 48.9h-6.2c0 0 1.4-39.3-9.6-38.6-8.3 0.5-25.4 21.6-33.7 32.3-3.1 4-7.8 6.3-12.7 6.3h-26.6c-8.6 0-9.7-12.5-1.3-14z"/>
					<path id="&lt;Path&gt;" class="s20" d="m3054.5 2840.3c46.1 35.2 58 73.5 68.6 108.7 10.6 35.3 29.9 136.7 38.9 159.1 7.5 18.7 27.8 60.1 34.1 73 1.8 3.7 1.7 8-0.4 11.4-2.5 4.1-7.6 8.3-18.1 8.3-20.2 0-27.6-5.7-27.9-11.6-0.3-3.8-6.4-43.7-24-91.5-17.6-47.9-128-257.4-128-257.4 25.2-31 56.8 0 56.8 0z"/>
					<path id="&lt;Path&gt;" class="s21" d="m2828.9 2506.5c0 0-50.2-132.5-55.7-159.1-9.4-45.3 69.8-103.2 69.8-103.2 0 0 40.6 9.7 80.6 30.5 25.5 13.3 35.1 44.7 21.5 70.1-17.1 31.9-33.4 83.5-17.2 152.1-52.6 31.6-99 9.6-99 9.6z"/>
					<path id="&lt;Path&gt;" class="s22" d="m3058 2843.2c0 0-109.1 28.8-180.1 14.5 0 0-45-237.5-52.2-274.5-7.2-36.9 3.2-76.7 3.2-76.7 0 0 46.4 22 99-9.6 0 0 51.6 24.8 63.2 59.8 11.6 34.9 21.7 206.2 66.9 286.5z"/>
					<path id="&lt;Path&gt;" class="s23" d="m2894.8 2164.4l23.2 104.1c2.2 9.2-6.2 7.7-15.4 5.9-15.2-2.9-34.8-8.7-41.3-20.6-0.7-1.2-1-2.5-1.2-3.9l-9.9-72.1c-0.8-5.8 2.3-11.3 7.5-13.7l19.2-8.5c7.4-3.3 16 1 17.9 8.8z"/>
					<path id="&lt;Path&gt;" class="s24" d="m2605.2 2095.7c0 0 61 211.8 306.9 191.9 15.7-1.3 29.5 10.4 30.8 26.1l0.6 8.5c1.8 22.8-16.8 42-39.6 40.9-81.8-4.2-257.5-36.3-317.7-230.6z"/>
					<path id="&lt;Path&gt;" class="s25" d="m2586.2 2132.5c0 0-11.7-34.5-14.6-56-3-21.6 7.9-70 17.2-83.6 9.3-13.6 10.9 19.8 15 35.4 4.2 15.7-2.9 38.1-2.9 38.1l4.3 29.3z"/>
					<g id="&lt;Group&gt;">
						<path id="&lt;Path&gt;" class="s26" d="m2901.5 2089.1c14.9 15.4 1.8 61.7 1.8 61.7 0 0-41.7 60.7-78.2 36.9-36.4-23.8 22.2-109.1 22.2-109.1 0 0 39.3-4.9 54.2 10.5z"/>
						<path id="&lt;Path&gt;" class="s27" d="m2915.6 2074.9c11 25.2-14.8 69.7-14.8 69.7l-9.9-46.6c-11.2-0.3-51.2-10.3-47.9-21.9 3.4-11.7 28.9-18.2 28.9-18.2 0 0 32.7-8.2 43.7 17z"/>
						<path id="&lt;Path&gt;" class="s28" d="m2891.5 2144.8c0 0 22.9-27.5 32.6-10 9.6 17.5-20.5 31.3-31.2 22.9z"/>
					</g>
				</g>
			</g>
			<g id="&lt;Group&gt;">
				<g id="&lt;Group&gt;">
					<g id="&lt;Group&gt;">
						<path id="&lt;Path&gt;" class="s1" d="m700 2811.5h932.7v151.5h-932.7c20 0 20-151.5 0-151.5z"/>
						<path id="&lt;Path&gt;" class="s29" d="m1632.7 2925.1v-69.4c0-24.4-18.4-44.2-41.1-44.2h-887.6c-17.9 0-32.4-11.8-32.4-26.3 0-4.4 4.4-8 9.8-8h970.1c22.3 0 57.6 28.4 57.6 63.4v96.9c0 33-34.3 59.7-55.3 59.7h-967.3c-8.2 0-14.9-5.4-14.9-12.1 0-12.2 12.2-22.1 27.3-22.1h898.6c19.4 0 35.2-17 35.2-37.9z"/>
					</g>
					<path id="&lt;Path&gt;" class="s30" d="m1606.9 2845.9h-874.6c-1.8 0-3.3-1.5-3.3-3.3 0-1.9 1.5-3.4 3.3-3.4h874.6c1.8 0 3.3 1.5 3.3 3.4 0 1.8-1.5 3.3-3.3 3.3z"/>
					<path id="&lt;Path&gt;" class="s30" d="m1606.9 2868.4h-874.6c-1.8 0-3.3-1.5-3.3-3.3 0-1.9 1.5-3.4 3.3-3.4h874.6c1.8 0 3.3 1.5 3.3 3.4 0 1.8-1.5 3.3-3.3 3.3z"/>
					<path id="&lt;Path&gt;" class="s30" d="m1606.9 2890.9h-874.6c-1.8 0-3.3-1.5-3.3-3.4 0-1.8 1.5-3.3 3.3-3.3h874.6c1.8 0 3.3 1.5 3.3 3.3 0 1.9-1.5 3.4-3.3 3.4z"/>
					<path id="&lt;Path&gt;" class="s30" d="m1606.9 2913.4h-874.6c-1.8 0-3.3-1.5-3.3-3.4 0-1.8 1.5-3.3 3.3-3.3h874.6c1.8 0 3.3 1.5 3.3 3.3 0 1.9-1.5 3.4-3.3 3.4z"/>
					<path id="&lt;Path&gt;" class="s30" d="m1606.9 2935.9h-874.6c-1.8 0-3.3-1.5-3.3-3.4 0-1.8 1.5-3.4 3.3-3.4h874.6c1.8 0 3.3 1.6 3.3 3.4 0 1.9-1.5 3.4-3.3 3.4z"/>
				</g>
				<g id="&lt;Group&gt;">
					<path id="&lt;Path&gt;" class="s31" d="m1729.7 3252.5h-1215.4c-8.1 0-14.7-6.6-14.7-14.7v-223.8c0-8.1 6.6-14.7 14.7-14.7h1215.4c8.1 0 14.7 6.6 14.7 14.7v223.8c0 8.1-6.6 14.7-14.7 14.7z"/>
					<path id="&lt;Path&gt;" class="s32" d="m762.1 3223.4h-97.5c-13.4 0-24.3-10.9-24.3-24.4v-146.2c0-13.5 10.9-24.4 24.3-24.4h97.5c13.5 0 24.4 10.9 24.4 24.4v146.2c0 13.5-10.9 24.4-24.4 24.4z"/>
					<path id="&lt;Path&gt;" class="s32" d="m843.1 3223.4h-15.3c-10.9 0-19.8-8.9-19.8-19.9v-155.2c0-11 8.9-19.9 19.8-19.9h15.3c10.9 0 19.8 8.9 19.8 19.9v155.2c0 11-8.9 19.9-19.8 19.9z"/>
				</g>
			</g>
			<g id="&lt;Group&gt;">
				<g id="&lt;Group&gt;">
					<path id="&lt;Path&gt;" class="s33" d="m1227.9 2091.7c35.8-3.7 65.5-2 60.3 18.1-22.4 87.8-64.5 77.8-64.5 77.8 0 0-53 47.6-90.5 21.5-34.2-23.7-42.6-83.9-42.6-83.9 0 0 38.1-28 38.7-29.1 0 0 52.3 0.4 98.6-4.4z"/>
					<path id="&lt;Path&gt;" class="s34" d="m1058.2 2301.2c14.8-10.2 31.3-18 48.8-22.7 6.5-1.8 41.9 8.5 63.8 8 30-0.7 60.6-14.4 85.3-8.2 24.6 6.1 44.7 14.1 56.3 22.4 34.8 24.7 55.2 70.9 67.7 116.5-23.6 24.2-53.2 35-53.2 35l-5.5 222.1-131.3 67.1-149.9-75.2 5.4-217c0 0-47.6-22.2-51.1-30.3-3.5-8 21.7-88.8 63.7-117.7z"/>
					<path id="&lt;Path&gt;" class="s35" d="m1052.7 2451.8c-19 147.5 44.2 161.5 44.2 161.5 0 0 11.7 50.2-18.5 54.2-145.5-72.7-81.7-249.5-81.7-249.5 0 0 38.5 19.4 56 33.8z"/>
					<path id="&lt;Path&gt;" class="s36" d="m1377 2418c0 0 43.9 184.6-81.6 249.5-30.2-4-18.6-54.2-18.6-54.2 0 0 50.9-25.1 44.2-161.5 17.5-14.4 56-33.8 56-33.8z"/>
					<path id="&lt;Path&gt;" class="s37" d="m1318.1 2679.9h-271.3c-4.6 0-8.3-3.8-8.3-8.3v-177.8c0-4.6 3.7-8.4 8.3-8.4h271.3c4.6 0 8.3 3.8 8.3 8.4v177.8c0 4.5-3.7 8.3-8.3 8.3z"/>
					<g id="&lt;Group&gt;">
						<path id="&lt;Path&gt;" class="s38" d="m1456.9 2792.6q-1.6 1.6-3.2 3.1c-3 0.9-6.4 1.5-10 1.5-35.8 0-108.3-13.1-108.3-13.1l5.1-41.7 3.1-8.3c0 0 76.2-4.1 109.1 3.4 15 14.2 19.3 38.5 4.2 55.1z"/>
						<path id="&lt;Path&gt;" class="s39" d="m1321.7 2731.7l12.9 0.6c7 0.2 13.5 3.6 18.1 9.3 4.7 5.7 7.1 13.3 6.7 20.9-0.3 6.2-2.8 11.9-7 15.9-4.1 4.1-9.6 6.2-15.1 5.8l-19.7-1.4z"/>
					</g>
					<g id="&lt;Group&gt;">
						<path id="&lt;Path&gt;" class="s40" d="m888 2733.5c33.2-6.5 109.2-0.1 109.2-0.1l2.9 8.5 4.1 41.8c0 0-72.8 10.9-108.6 9.7-3.6-0.1-7-0.7-10-1.8q-1.6-1.5-3.1-3.2c-14.7-17-9.7-41.2 5.5-54.9z"/>
						<path id="&lt;Path&gt;" class="s41" d="m1022 2782.9l-19.8 0.8c-5.5 0.2-10.9-2-14.9-6.2-4-4.2-6.4-10-6.6-16.1-0.2-7.7 2.4-15.2 7.2-20.7 4.8-5.6 11.4-8.7 18.3-8.8l12.9-0.2z"/>
					</g>
					<path id="&lt;Path&gt;" class="s42" d="m1418 2699.1c-124.2 39.1-268.8 83.5-402.1 90.4q0.3-5.5 0.2-11c-0.6-16.7-3.1-33.7-8.1-49.6 173.8-44.3 370.8-145.3 371.3-146 31.1-16.1 67.7-10.5 82.6 23.9 16.6 38.1-5.3 79.9-43.9 92.3z"/>
					<path id="&lt;Path&gt;" class="s43" d="m1322.9 2785.3c-99.9-6.7-208.4-31.3-295.6-58.3-32.5-10.4 19.3-1.2-80.2-34.3-33.2-11.1-55.1-42.6-45.2-79.4 11.2-41.3 50.9-54.1 85.8-35 89.8 49 184 91.7 307.3 133.9 16.9 5.7 29.7 9.9 39.6 13-0.2 0.7-0.5 1.4-0.7 2.2q-12 24.8-11.2 53.7 0.1 2.1 0.2 4.2z"/>
					<path id="&lt;Path&gt;" class="s44" d="m1144 2271.5l1.2-45.4 64.5-4.7 3.6 47.7 42.8 9.2c0 0-5.8 55.3-71.5 56.5-64.4 1.2-77.6-56.3-77.6-56.3z"/>
					<path id="&lt;Path&gt;" class="s45" d="m1227.4 2092.4c0 0 11.8-6 29.6 44.1 11.6 32.4-27.2 151.9-89 127.4-87.6-34.7-13.8-177.8-13.8-177.8z"/>
					<path id="&lt;Path&gt;" class="s46" d="m1274.8 2073c36.5 10.1 5.3 89.2-49.6 70.5-55-18.7-76.6-18.4-85.2-3.4-8.5 15.1-10.4 68.7-28.9 42.2-20.4-29-31.8-87.3-6.8-106.1 22.3-16.8 27.5-42.8 54.3-41.9 35.6 1.2 63-14.6 79.1-3.2 18.4 13 10.3 34.5 37.1 41.9z"/>
					<path id="&lt;Path&gt;" class="s47" d="m1133.4 2188.3c-9.4 14.4-17.5-11.9-15-32.4 2.5-20.4 18.3-3.4 18.3-3.4 0 0 6.2 21.3-3.3 35.8z"/>
				</g>
				<path id="&lt;Path&gt;" class="s1" d="m1199.4 2567.4c1.6 10.3-4 19.7-14.3 21.2-10.3 1.5-19.9-5.6-21.4-15.9-1.6-10.3 3.2-20.6 13.5-22.1 10.3-1.5 20.7 6.5 22.2 16.8z"/>
			</g>
			<g id="&lt;Group&gt;">
				<path id="&lt;Path&gt;" class="s13" d="m1338.4 1686.7c0 186.1-150.9 337-337 337-186.2 0-337.1-150.9-337.1-337 0-186.1 150.9-337 337.1-337 186.1 0 337 150.9 337 337z"/>
				<g id="&lt;Group&gt;">
					<path id="&lt;Compound Path&gt;" class="s1" d="m723.6 1670.3l70.7-36.9v15.7q0 1.8-0.9 3.3-0.9 1.4-2.9 2.5l-32.4 16.6q-2.1 1.1-4.4 1.8-2.3 0.8-4.8 1.4 2.5 0.7 4.8 1.4 2.3 0.8 4.4 1.8l32.4 16.7q2 1.1 2.9 2.6 0.9 1.5 0.9 3.2v15.8l-70.7-37z"/>
					<path id="&lt;Compound Path&gt;" class="s1" d="m826.5 1734.9v-132.7h22.1v51q5.4-5.1 11.8-8.2 6.4-3.1 15.1-3.1 7.5 0 13.3 2.5 5.8 2.6 9.7 7.2 3.8 4.6 5.9 10.9 2 6.4 2 14.1v58.3h-22.1v-58.3q0-8.4-3.9-13-3.9-4.6-11.6-4.6-5.7 0-10.7 2.6-5 2.6-9.5 7.1v66.2z"/>
					<path id="&lt;Compound Path&gt;" class="s1" d="m958.2 1736.3q-11.9 0-18.3-6.7-6.5-6.7-6.5-18.6v-51.2h-9.3q-1.8 0-3-1.1-1.3-1.2-1.3-3.5v-8.8l14.7-2.4 4.6-25q0.4-1.8 1.7-2.8 1.3-0.9 3.2-0.9h11.5v28.8h24.1v15.7h-24.1v49.7q0 4.3 2.1 6.7 2.2 2.4 5.7 2.4 2.1 0 3.5-0.5 1.4-0.5 2.4-1 1-0.6 1.8-1.1 0.8-0.5 1.6-0.5 1 0 1.6 0.5 0.7 0.5 1.4 1.5l6.6 10.7q-4.8 4-11.1 6.1-6.2 2-12.9 2z"/>
					<path id="&lt;Compound Path&gt;" class="s1" d="m997.2 1734.9v-91.6h13.5q4.2 0 5.6 4l1.4 6.8q2.4-2.7 5.1-4.9 2.6-2.2 5.6-3.8 3-1.7 6.4-2.6 3.4-0.9 7.6-0.9 8.6 0 14.2 4.7 5.6 4.6 8.3 12.4 2.2-4.5 5.4-7.8 3.2-3.3 7.1-5.3 3.8-2.1 8.1-3 4.4-1 8.7-1 7.6 0 13.5 2.3 5.9 2.3 9.9 6.8 4 4.4 6.1 10.9 2.1 6.4 2.1 14.7v58.3h-22v-58.3q0-8.7-3.8-13.2-3.9-4.4-11.3-4.4-3.4 0-6.3 1.2-2.9 1.1-5.1 3.3-2.2 2.2-3.4 5.5-1.3 3.3-1.3 7.6v58.3h-22.1v-58.3q0-9.2-3.7-13.4-3.7-4.2-11-4.2-4.7 0-8.8 2.4-4.2 2.3-7.8 6.5v67z"/>
					<path id="&lt;Compound Path&gt;" class="s1" d="m1171 1602.2v132.7h-22v-132.7z"/>
					<path id="&lt;Compound Path&gt;" class="s1" d="m1204.6 1716.2v-15.8q0-1.7 0.9-3.2 0.9-1.5 2.9-2.6l32.5-16.7q3.9-1.9 9.2-3.2-2.6-0.6-4.9-1.4-2.3-0.7-4.3-1.8l-32.5-16.6q-2-1.1-2.9-2.5-0.9-1.5-0.9-3.3v-15.7l70.7 36.9v8.9z"/>
				</g>
			</g>
			<g id="&lt;Group&gt;">
				<path id="&lt;Path&gt;" class="s13" d="m2071.3 1469c0 164-132.9 296.9-296.8 296.9-164 0-296.9-132.9-296.9-296.9 0-164 132.9-296.9 296.9-296.9 163.9 0 296.8 132.9 296.8 296.9z"/>
				<g id="&lt;Group&gt;">
					<path id="&lt;Compound Path&gt;" class="s1" d="m1617.5 1469.5l85.8-44.7v19q0 2.2-1.1 4-1.1 1.8-3.6 3.1l-39.3 20.1q-2.5 1.3-5.2 2.2-2.8 1-5.9 1.7 3.1 0.8 5.9 1.7 2.7 0.9 5.2 2.2l39.3 20.3q2.5 1.3 3.6 3.1 1.1 1.7 1.1 3.9v19.1l-85.8-44.9z"/>
					<path id="&lt;Compound Path&gt;" class="s1" d="m1751.7 1548.2q-1 2.5-2.5 4.4-1.5 1.8-3.4 3.1-2 1.2-4.2 1.9-2.1 0.6-4.2 0.6h-11.2l63.2-161.8q1.9-4.6 5.3-7 3.5-2.5 8.4-2.5h11.3z"/>
					<path id="&lt;Compound Path&gt;" class="s1" d="m1836.8 1525.2v-19.1q0-2.2 1-3.9 1.1-1.8 3.6-3.1l39.3-20.3q4.8-2.4 11.2-3.9-3.1-0.7-5.9-1.7-2.8-0.9-5.3-2.2l-39.3-20.1q-2.5-1.3-3.6-3.1-1-1.8-1-4v-19l85.8 44.7v10.8z"/>
				</g>
			</g>
			<g id="&lt;Group&gt;">
				<g id="&lt;Group&gt;" style="opacity: .6">
					<path id="&lt;Path&gt;" class="s48" d="m3108.9 1641c-0.9 0-1.8-0.3-2.5-1-1.3-1.3-1.2-3.5 0.1-4.8q3-2.9 5.9-5.8c1.3-1.4 3.4-1.4 4.7-0.1 1.4 1.3 1.4 3.4 0.1 4.7q-2.9 3.1-6 6.1c-0.7 0.6-1.5 0.9-2.3 0.9z"/>
					<path id="&lt;Compound Path&gt;" class="s49" d="m2899 1729.6c-1.8 0-3.3-1.4-3.4-3.3 0-1.8 1.5-3.4 3.3-3.4 5.5-0.1 11-0.4 16.5-0.9 1.8-0.1 3.4 1.3 3.6 3.1 0.1 1.9-1.3 3.5-3.1 3.7-5.6 0.4-11.3 0.7-16.8 0.8q-0.1 0-0.1 0zm-16.7 0q0 0-0.1 0c-5.6-0.2-11.2-0.5-16.8-1-1.8-0.1-3.2-1.8-3-3.6 0.1-1.9 1.7-3.2 3.6-3.1 5.4 0.5 11 0.8 16.4 0.9 1.9 0.1 3.4 1.7 3.3 3.5-0.1 1.8-1.6 3.3-3.4 3.3zm49.9-2.6c-1.7 0-3.1-1.2-3.3-2.9-0.3-1.8 1-3.5 2.9-3.8 5.4-0.7 10.8-1.6 16.2-2.6 1.8-0.3 3.6 0.9 3.9 2.7 0.4 1.8-0.8 3.6-2.6 3.9-5.5 1.1-11.1 2-16.7 2.7q-0.2 0-0.4 0zm-83-0.2q-0.3 0-0.5 0c-5.6-0.8-11.2-1.7-16.6-2.8-1.8-0.3-3-2.1-2.7-3.9 0.4-1.8 2.1-3 4-2.7 5.3 1.1 10.8 2 16.2 2.7 1.8 0.3 3.1 2 2.9 3.8-0.3 1.7-1.7 2.9-3.3 2.9zm115.7-5.9c-1.5 0-2.9-1.1-3.3-2.6-0.4-1.8 0.7-3.6 2.5-4.1 5.3-1.3 10.7-2.7 15.9-4.3 1.8-0.6 3.7 0.5 4.2 2.2 0.5 1.8-0.5 3.7-2.2 4.2-5.4 1.6-10.9 3.1-16.3 4.5q-0.4 0.1-0.8 0.1zm-148.5-0.4q-0.4 0-0.8-0.1c-5.4-1.3-10.8-2.8-16.2-4.5-1.8-0.5-2.8-2.4-2.2-4.2 0.5-1.8 2.4-2.8 4.2-2.2 5.2 1.6 10.6 3.1 15.9 4.4 1.8 0.4 2.9 2.3 2.4 4.1-0.4 1.5-1.7 2.5-3.3 2.5zm180.4-9.3c-1.4 0-2.7-0.8-3.2-2.2-0.6-1.7 0.3-3.7 2-4.3 5.2-1.9 10.3-3.9 15.4-6 1.7-0.7 3.7 0.1 4.4 1.8 0.7 1.7-0.1 3.7-1.8 4.4-5.2 2.2-10.4 4.2-15.7 6.1q-0.5 0.2-1.1 0.2zm-212.2-0.4q-0.6 0-1.1-0.2c-5.3-1.9-10.6-4-15.7-6.2-1.7-0.7-2.5-2.7-1.8-4.4 0.8-1.7 2.7-2.5 4.4-1.8 5.1 2.1 10.2 4.2 15.4 6.1 1.7 0.6 2.6 2.5 2 4.3-0.5 1.3-1.8 2.2-3.2 2.2zm242.9-12.6c-1.3 0-2.5-0.6-3.1-1.8-0.8-1.7-0.1-3.7 1.6-4.5 4.9-2.4 9.8-5 14.6-7.6 1.6-0.9 3.7-0.4 4.6 1.3 0.9 1.6 0.3 3.6-1.3 4.5-4.9 2.7-9.9 5.4-15 7.8q-0.7 0.3-1.4 0.3zm-273.5-0.5q-0.8 0-1.5-0.3c-5-2.5-10-5.1-14.9-7.8-1.6-0.9-2.2-3-1.3-4.6 0.9-1.6 2.9-2.2 4.6-1.3 4.8 2.7 9.7 5.2 14.6 7.6 1.6 0.9 2.3 2.9 1.5 4.5-0.6 1.2-1.8 1.9-3 1.9zm302.6-15.6c-1.1 0-2.2-0.5-2.9-1.6-0.9-1.5-0.5-3.6 1.1-4.6 4.7-2.9 9.3-6 13.7-9.1 1.6-1.1 3.7-0.7 4.7 0.8 1.1 1.5 0.7 3.6-0.8 4.7-4.6 3.2-9.3 6.3-14 9.3-0.6 0.3-1.2 0.5-1.8 0.5zm-331.7-0.6c-0.6 0-1.2-0.2-1.8-0.5-4.7-3-9.4-6.2-14-9.4-1.5-1.1-1.8-3.2-0.8-4.7 1.1-1.5 3.2-1.9 4.7-0.8 4.5 3.2 9.1 6.3 13.7 9.2 1.6 1 2.1 3 1.1 4.6-0.7 1-1.8 1.6-2.9 1.6zm358.9-18.5c-1 0-2-0.5-2.6-1.3-1.2-1.5-0.9-3.6 0.5-4.7 4.4-3.4 8.6-7 12.7-10.6 1.4-1.2 3.5-1.1 4.8 0.3 1.2 1.4 1.1 3.6-0.3 4.8-4.2 3.7-8.6 7.3-13 10.8-0.6 0.4-1.3 0.7-2.1 0.7zm-386-0.8c-0.8 0-1.5-0.2-2.1-0.7-4.4-3.5-8.7-7.1-12.9-10.8-1.4-1.2-1.5-3.3-0.3-4.7 1.2-1.4 3.4-1.6 4.7-0.3 4.1 3.6 8.4 7.1 12.7 10.5 1.4 1.2 1.7 3.3 0.5 4.8-0.7 0.8-1.6 1.2-2.6 1.2zm-24.9-22c-0.9 0-1.7-0.3-2.4-1-4-3.9-7.9-7.9-11.7-12.1-1.2-1.4-1.1-3.5 0.3-4.7 1.3-1.3 3.5-1.2 4.7 0.2 3.7 4 7.5 8 11.4 11.8 1.3 1.4 1.4 3.5 0.1 4.8-0.7 0.7-1.6 1-2.4 1zm-22.4-24.6c-1 0-2-0.4-2.6-1.2-3.6-4.3-7-8.8-10.3-13.3-1.1-1.5-0.8-3.6 0.7-4.7 1.5-1.1 3.6-0.8 4.7 0.7 3.2 4.4 6.6 8.8 10.1 13 1.1 1.5 0.9 3.6-0.5 4.8-0.6 0.5-1.4 0.7-2.1 0.7zm-19.7-26.8c-1.1 0-2.2-0.6-2.8-1.6-3.1-4.7-6-9.5-8.8-14.3-1-1.6-0.4-3.7 1.2-4.6 1.6-0.9 3.7-0.4 4.6 1.2 2.7 4.7 5.6 9.5 8.6 14.1 1 1.5 0.6 3.6-1 4.6-0.5 0.4-1.2 0.6-1.8 0.6zm-16.7-28.9c-1.2 0-2.4-0.6-3-1.8q-1.8-3.5-3.5-7.1-1.9-4-3.7-8.1c-0.8-1.7 0-3.7 1.7-4.4 1.7-0.8 3.7 0 4.4 1.7q1.8 4 3.7 7.9 1.7 3.5 3.4 7c0.9 1.6 0.2 3.6-1.4 4.5q-0.8 0.4-1.6 0.3zm-13.5-30.4c-1.4 0-2.6-0.8-3.1-2.1-2-5.2-3.9-10.6-5.6-15.9-0.6-1.8 0.4-3.7 2.1-4.2 1.8-0.6 3.7 0.4 4.3 2.1 1.6 5.2 3.5 10.5 5.4 15.6 0.7 1.7-0.2 3.6-1.9 4.3q-0.6 0.2-1.2 0.2zm-10.2-31.7c-1.5 0-2.9-1-3.3-2.5-1.4-5.3-2.7-10.9-3.9-16.3-0.3-1.9 0.8-3.6 2.6-4 1.8-0.4 3.6 0.8 4 2.6 1.1 5.4 2.4 10.8 3.8 16 0.5 1.8-0.6 3.7-2.4 4.1q-0.4 0.1-0.8 0.1zm-6.8-32.6c-1.7 0-3.1-1.2-3.3-2.8-0.9-5.5-1.6-11.2-2.1-16.7-0.2-1.9 1.1-3.5 3-3.7 1.9-0.2 3.5 1.2 3.7 3 0.5 5.5 1.2 11 2 16.4 0.3 1.8-1 3.5-2.8 3.8q-0.3 0-0.5 0zm-3.3-33.1c-1.7 0-3.2-1.4-3.3-3.2-0.2-4.5-0.3-9-0.3-13.6v-3.2c0-1.9 1.7-3.5 3.4-3.4 1.9 0 3.4 1.6 3.3 3.4v3.2c0 4.5 0.1 8.9 0.3 13.3 0.1 1.8-1.3 3.4-3.2 3.5q-0.1 0-0.2 0z"/>
					<path id="&lt;Path&gt;" class="s50" d="m2580.7 1398.6q-0.1 0-0.2 0c-1.9-0.1-3.3-1.7-3.1-3.6q0.2-4.2 0.6-8.4c0.2-1.9 1.8-3.3 3.7-3.1 1.8 0.2 3.2 1.8 3 3.7q-0.4 4.1-0.6 8.3c-0.1 1.7-1.6 3.1-3.4 3.1z"/>
				</g>
				<g id="&lt;Group&gt;" style="opacity: .6">
					<path id="&lt;Path&gt;" class="s51" d="m2686.9 1183.8c-1 0-1.9-0.4-2.6-1.1-1.2-1.4-1.1-3.5 0.3-4.8q3.2-2.8 6.5-5.5c1.5-1.1 3.6-0.9 4.8 0.5 1.1 1.4 0.9 3.6-0.5 4.7q-3.2 2.7-6.3 5.4c-0.7 0.6-1.5 0.8-2.2 0.8z"/>
					<path id="&lt;Compound Path&gt;" class="s52" d="m3202 1435.4q-0.1 0-0.2 0c-1.8-0.1-3.3-1.6-3.2-3.5 0.4-5.7 0.5-11.4 0.5-17 0-1.8 1.5-3.3 3.4-3.3 1.8 0 3.3 1.5 3.3 3.3 0 5.7-0.1 11.6-0.4 17.4-0.1 1.8-1.6 3.1-3.4 3.1zm0-34.2c-1.8 0-3.3-1.4-3.4-3.2-0.3-5.6-0.7-11.3-1.4-16.9-0.2-1.9 1.2-3.5 3-3.7 1.8-0.3 3.5 1.1 3.7 2.9 0.7 5.7 1.1 11.6 1.5 17.3 0.1 1.9-1.4 3.5-3.2 3.6q-0.1 0-0.2 0zm-3.8-34.1c-1.6 0-3-1.2-3.3-2.8-0.9-5.6-2-11.2-3.3-16.7-0.4-1.8 0.7-3.6 2.6-4 1.8-0.4 3.6 0.7 4 2.5 1.3 5.7 2.4 11.4 3.3 17.1 0.3 1.8-0.9 3.5-2.7 3.8q-0.3 0.1-0.6 0.1zm-7.5-33.5c-1.5 0-2.9-0.9-3.3-2.4-1.5-5.4-3.2-10.9-5.1-16.2-0.6-1.7 0.3-3.7 2.1-4.3 1.8-0.6 3.7 0.4 4.3 2.1 1.9 5.4 3.6 11 5.2 16.5 0.5 1.8-0.5 3.7-2.3 4.2q-0.5 0.1-0.9 0.1zm-11.2-32.4c-1.4 0-2.6-0.8-3.1-2.1-2.2-5.2-4.5-10.4-6.9-15.5-0.8-1.7-0.1-3.7 1.6-4.5 1.7-0.8 3.7-0.1 4.5 1.6 2.5 5.2 4.8 10.6 7 15.9 0.7 1.7-0.1 3.7-1.9 4.4q-0.6 0.2-1.2 0.2zm-14.7-31c-1.2 0-2.4-0.6-3-1.7-2.6-5-5.5-9.9-8.4-14.7-1-1.6-0.5-3.7 1.1-4.7 1.5-0.9 3.6-0.4 4.6 1.1 3 5 5.9 10 8.7 15.1 0.8 1.6 0.2 3.6-1.4 4.5q-0.8 0.4-1.6 0.4zm-17.9-29.2c-1.1 0-2.2-0.5-2.8-1.4-3.2-4.7-6.6-9.3-10-13.7-1.2-1.5-0.9-3.6 0.5-4.7 1.5-1.2 3.6-0.9 4.8 0.6 3.5 4.5 7 9.2 10.2 13.9 1.1 1.6 0.7 3.7-0.8 4.7-0.6 0.4-1.3 0.6-1.9 0.6zm-21.1-27c-0.9 0-1.8-0.4-2.5-1.2-3.7-4.2-7.6-8.4-11.5-12.5-1.3-1.3-1.3-3.4 0.1-4.7 1.3-1.3 3.4-1.3 4.7 0 4 4.2 8 8.5 11.8 12.8 1.2 1.4 1 3.5-0.4 4.7-0.6 0.6-1.4 0.9-2.2 0.9zm-23.9-24.6c-0.8 0-1.6-0.3-2.2-0.9-4.2-3.8-8.5-7.5-12.8-11.1-1.5-1.2-1.7-3.3-0.5-4.7 1.2-1.5 3.3-1.7 4.7-0.5 4.5 3.7 8.9 7.5 13.1 11.4 1.4 1.2 1.5 3.4 0.2 4.7-0.7 0.8-1.6 1.1-2.5 1.1zm-395.1-21.5c-1 0-2-0.5-2.7-1.4-1.1-1.5-0.8-3.6 0.7-4.7 4.6-3.4 9.4-6.7 14.3-9.9 1.5-1 3.6-0.6 4.6 1 1 1.6 0.6 3.6-1 4.7-4.7 3-9.4 6.3-13.9 9.6-0.6 0.5-1.3 0.7-2 0.7zm368.7-0.2c-0.7 0-1.4-0.2-2-0.7-4.6-3.3-9.3-6.5-14-9.6-1.5-1-2-3.1-1-4.7 1-1.5 3.1-2 4.7-1 4.8 3.2 9.6 6.5 14.2 9.9 1.5 1.1 1.9 3.2 0.8 4.7-0.7 0.9-1.7 1.4-2.7 1.4zm-340-18.6c-1.1 0-2.3-0.6-2.9-1.6-0.9-1.7-0.4-3.7 1.2-4.6 5-2.9 10.2-5.7 15.3-8.3 1.6-0.8 3.7-0.2 4.5 1.5 0.8 1.7 0.2 3.7-1.5 4.5-5 2.6-10 5.3-14.9 8.1q-0.8 0.4-1.7 0.4zm311.2-0.1q-0.8 0-1.6-0.5c-4.9-2.8-9.9-5.5-15-8-1.6-0.9-2.3-2.9-1.5-4.6 0.9-1.6 2.9-2.3 4.6-1.5 5.1 2.6 10.2 5.4 15.2 8.3 1.6 0.9 2.2 3 1.3 4.6-0.7 1.1-1.8 1.7-3 1.7zm-280.6-15.4c-1.3 0-2.5-0.7-3.1-2-0.7-1.7 0.1-3.7 1.8-4.4 5.2-2.3 10.6-4.5 16-6.5 1.7-0.7 3.7 0.2 4.3 1.9 0.7 1.8-0.2 3.7-1.9 4.4-5.3 1.9-10.6 4.1-15.7 6.4q-0.7 0.2-1.4 0.2zm250-0.1q-0.7 0-1.3-0.3c-5.2-2.2-10.4-4.4-15.7-6.3-1.8-0.7-2.7-2.6-2-4.4 0.6-1.7 2.6-2.6 4.3-1.9 5.4 2 10.8 4.2 16.1 6.5 1.7 0.7 2.5 2.7 1.7 4.4-0.5 1.3-1.8 2-3.1 2zm-217.9-11.9c-1.4 0-2.8-1-3.2-2.4-0.6-1.8 0.4-3.6 2.2-4.2 5.5-1.7 11.1-3.3 16.7-4.8 1.8-0.4 3.6 0.7 4.1 2.5 0.4 1.8-0.7 3.6-2.5 4.1-5.4 1.4-10.9 2.9-16.3 4.6q-0.5 0.2-1 0.2zm185.8-0.1q-0.5 0-1-0.1c-5.3-1.7-10.8-3.3-16.3-4.7-1.8-0.4-2.9-2.2-2.5-4 0.5-1.9 2.3-2.9 4.1-2.5 5.6 1.4 11.2 3 16.7 4.7 1.8 0.6 2.8 2.5 2.2 4.3-0.4 1.4-1.8 2.3-3.2 2.3zm-152.6-8.4c-1.5 0-3-1.1-3.3-2.7-0.3-1.8 0.9-3.6 2.7-4 5.6-1.1 11.4-2 17.1-2.8 1.8-0.3 3.5 1 3.8 2.8 0.2 1.9-1 3.6-2.9 3.8-5.6 0.8-11.2 1.7-16.7 2.8q-0.3 0.1-0.7 0.1zm119.4 0q-0.3 0-0.7-0.1c-5.5-1.1-11.1-2-16.7-2.8-1.8-0.2-3.1-1.9-2.9-3.8 0.3-1.8 2-3.1 3.8-2.8 5.7 0.8 11.5 1.7 17.1 2.8 1.9 0.4 3 2.1 2.7 4-0.3 1.6-1.7 2.7-3.3 2.7zm-34-4.7q-0.1 0-0.3 0c-5.6-0.5-11.3-0.8-16.9-1-1.9 0-3.3-1.6-3.3-3.4 0.1-1.9 1.7-3.4 3.5-3.3 5.7 0.1 11.6 0.5 17.3 0.9 1.8 0.2 3.2 1.8 3.1 3.7-0.2 1.7-1.7 3.1-3.4 3.1zm-51.4 0c-1.7 0-3.2-1.4-3.4-3.1-0.1-1.9 1.3-3.5 3.1-3.7 5.8-0.4 11.6-0.8 17.3-0.9 1.8-0.1 3.4 1.4 3.5 3.3 0 1.8-1.4 3.4-3.3 3.4-5.6 0.2-11.3 0.5-16.9 0.9q-0.2 0.1-0.3 0.1z"/>
					<path id="&lt;Path&gt;" class="s53" d="m3199.5 1461.1q-0.2 0-0.5 0c-1.8-0.3-3.1-2-2.8-3.8q0.5-4.2 1-8.3c0.2-1.8 1.9-3.2 3.7-3 1.9 0.3 3.2 1.9 3 3.8q-0.5 4.2-1.1 8.4c-0.2 1.7-1.6 2.9-3.3 2.9z"/>
				</g>
				<g id="&lt;Group&gt;">
					<path id="&lt;Compound Path&gt;" class="s54" d="m3135.9 1546.3c-0.7 1.7-2.4 2.8-4.2 2.7l-52.7-2c-13.9 20.3-31.1 38.5-51.4 53.7l4.4 52.5c0.2 1.9-0.9 3.6-2.6 4.3l-57.8 25.5c-1.7 0.8-3.7 0.3-4.9-1l-35.8-38.7c-24.9 4.7-50 5.1-74.3 1.7l-34.1 40.2c-1.2 1.4-3.1 1.9-4.9 1.2l-58.9-22.9c-1.7-0.6-2.8-2.3-2.7-4.2l2-52.6c-20.3-13.9-38.5-31.2-53.7-51.4l-52.5 4.4c-1.9 0.1-3.6-0.9-4.3-2.6l-25.5-57.9c-0.7-1.6-0.3-3.6 1-4.9l38.7-35.7c-4.7-24.9-5.1-50-1.7-74.4l-40.2-34c-1.4-1.2-1.9-3.2-1.2-4.9l22.9-58.9c0.6-1.7 2.3-2.8 4.2-2.8l52.6 2.1c13.9-20.3 31.2-38.6 51.4-53.8l-4.4-52.5c-0.1-1.8 0.9-3.5 2.6-4.3l57.9-25.4c1.6-0.8 3.6-0.4 4.9 1l35.7 38.6c24.9-4.6 50-5.1 74.4-1.6l34-40.2c1.2-1.4 3.2-1.9 4.9-1.3l58.9 22.9c1.7 0.7 2.8 2.4 2.8 4.2l-2.1 52.7c20.3 13.9 38.6 31.1 53.8 51.4l52.5-4.4c1.8-0.1 3.5 0.9 4.3 2.6l25.5 57.8c0.7 1.7 0.3 3.7-1.1 4.9l-38.6 35.8c4.6 24.9 5.1 50 1.6 74.3l40.2 34.1c1.4 1.2 1.9 3.1 1.3 4.9z"/>
					<path id="&lt;Compound Path&gt;" fill-rule="evenodd" class="s1" d="m2888.7 1475.8c-17.7 0-35.2-7.9-46.9-22.9-20.2-25.9-15.6-63.3 10.3-83.5 12.5-9.7 28.1-14 43.9-12.1 15.8 2 29.8 9.9 39.6 22.5 9.8 12.5 14.1 28.1 12.1 43.8-2 15.8-9.9 29.9-22.5 39.6-10.8 8.5-23.7 12.6-36.5 12.6zm-0.1-112.2c-11.7 0-23 3.8-32.4 11.1-22.9 17.9-27 51.1-9.1 74.1 17.9 22.9 51.1 27 74 9.1 11.1-8.6 18.2-21.1 19.9-35.1 1.8-14-2.1-27.8-10.7-38.9-8.7-11.1-21.2-18.2-35.1-19.9q-3.4-0.4-6.6-0.4z"/>
					<path id="&lt;Path&gt;" class="s1" d="m2887.6 1571.8c-59.9 0-117.2-34.8-142.9-93-8.9-20.4-13.2-41.7-13.2-62.6 0-60 34.8-117.2 93.1-142.9 38.1-16.8 80.4-17.7 119.2-2.6 38.8 15 69.4 44.3 86.2 82.4 4.5 10.2 7.9 20.8 10.1 31.6q0.1 0.4 0.1 0.7c0 1.6-1.1 3-2.7 3.3-1.8 0.4-3.6-0.8-4-2.6-2.1-10.3-5.4-20.5-9.6-30.3q-1.5-3.2-3-6.4 0 0-0.1 0 0-0.1-0.1-0.2 0-0.1 0-0.1 0 0 0 0 0 0 0 0 0 0 0-0.1c-16.6-33.1-44.5-58.5-79.3-72.1-37.2-14.4-77.7-13.5-114.1 2.6-55.8 24.5-89 79.3-89 136.7 0 20 4 40.4 12.6 59.9 33.2 75.2 121.3 109.5 196.6 76.3 24.7-10.9 46-28.2 61.6-50.2 1-1.5 3.1-1.9 4.6-0.8 1 0.7 1.5 1.7 1.5 2.8 0 0.6-0.2 1.3-0.7 1.9-16.2 23-38.4 41.1-64.3 52.5-20.4 9-41.6 13.2-62.6 13.2z"/>
				</g>
			</g>
			<g id="&lt;Group&gt;">
				<g id="&lt;Group&gt;" style="opacity: .6">
					<path id="&lt;Path&gt;" class="s55" d="m2658.1 1251.6c-0.9 0-1.8-0.3-2.4-1-1.3-1.3-1.3-3.5 0.1-4.8q3-2.8 5.8-5.8c1.3-1.4 3.5-1.4 4.8-0.1 1.3 1.3 1.4 3.4 0.1 4.8q-3 3-6.1 6c-0.6 0.6-1.5 0.9-2.3 0.9z"/>
					<path id="&lt;Compound Path&gt;" class="s56" d="m2485.6 1321.3c-4.6 0-9.2-0.1-13.8-0.3-1.8-0.1-3.3-1.7-3.1-3.6 0-1.8 1.6-3.2 3.5-3.1q8.3 0.4 16.8 0.3c1.9 0 3.4 1.5 3.4 3.3 0 1.9-1.5 3.4-3.3 3.4q-1.8 0-3.5 0zm20.4-0.8c-1.7 0-3.2-1.3-3.3-3.1-0.2-1.8 1.2-3.5 3-3.6 5.6-0.5 11.2-1.1 16.7-2 1.9-0.3 3.6 1 3.9 2.8 0.2 1.9-1 3.6-2.9 3.9-5.6 0.8-11.4 1.5-17.1 2q-0.1 0-0.3 0zm-50.9-1q-0.2 0-0.5-0.1c-5.6-0.7-11.4-1.6-17-2.7-1.8-0.3-3-2.1-2.7-3.9 0.4-1.8 2.2-3 4-2.7 5.5 1.1 11 2 16.6 2.7 1.8 0.2 3.1 1.9 2.9 3.7-0.2 1.7-1.7 3-3.3 3zm84.6-4.2c-1.6 0-3-1-3.3-2.6-0.4-1.8 0.7-3.6 2.5-4 5.5-1.2 10.9-2.6 16.3-4.2 1.8-0.6 3.6 0.4 4.2 2.2 0.5 1.8-0.5 3.7-2.3 4.2-5.5 1.6-11.1 3.1-16.7 4.4q-0.4 0.1-0.7 0zm-118-2.3q-0.5 0-0.9-0.1c-5.5-1.5-11.1-3.2-16.5-5-1.8-0.6-2.7-2.5-2.1-4.3 0.6-1.7 2.5-2.7 4.3-2.1 5.2 1.8 10.7 3.5 16 4.9 1.8 0.5 2.9 2.3 2.4 4.1-0.4 1.5-1.7 2.5-3.2 2.5zm150.6-7.4c-1.4 0-2.7-0.8-3.2-2.2-0.6-1.7 0.2-3.6 2-4.3 5.2-1.9 10.4-4.1 15.5-6.4 1.7-0.8 3.7 0 4.5 1.7 0.7 1.7 0 3.7-1.7 4.4-5.2 2.4-10.6 4.6-16 6.6q-0.5 0.2-1.1 0.2zm-182.8-3.5q-0.7 0-1.3-0.3c-5.3-2.2-10.6-4.6-15.7-7.2-1.7-0.8-2.4-2.8-1.5-4.5 0.8-1.7 2.8-2.3 4.5-1.5 5 2.5 10.1 4.8 15.3 7 1.7 0.7 2.5 2.7 1.8 4.4-0.6 1.3-1.8 2.1-3.1 2.1zm213.8-10.5c-1.2 0-2.4-0.7-3-1.8-0.9-1.6-0.3-3.7 1.4-4.5 4.9-2.7 9.8-5.5 14.5-8.5 1.5-1 3.6-0.5 4.6 1.1 1 1.6 0.5 3.6-1 4.6-4.9 3.1-9.9 6-15 8.7q-0.7 0.4-1.5 0.4zm-244.3-4.8c-0.5 0-1.1-0.1-1.7-0.4-4.9-2.9-9.8-6-14.5-9.3-1.6-1-2-3.1-0.9-4.7 1-1.5 3.1-1.9 4.7-0.8 4.6 3.1 9.3 6.1 14.1 9 1.6 0.9 2.2 3 1.2 4.6-0.6 1-1.7 1.6-2.9 1.6zm273.1-13.3c-1.1 0-2.1-0.5-2.8-1.4-1.1-1.5-0.7-3.6 0.8-4.7 4.5-3.3 8.9-6.8 13.2-10.3 1.4-1.2 3.5-1 4.7 0.4 1.2 1.4 1 3.5-0.4 4.7-4.4 3.7-8.9 7.3-13.6 10.6-0.6 0.5-1.3 0.7-1.9 0.7zm-301.1-5.9c-0.8 0-1.5-0.2-2.1-0.7-4.5-3.6-9-7.3-13.2-11.2-1.3-1.2-1.5-3.3-0.2-4.7 1.2-1.4 3.4-1.5 4.8-0.2 4.1 3.7 8.4 7.4 12.8 10.8 1.4 1.2 1.7 3.3 0.5 4.7-0.7 0.9-1.6 1.3-2.6 1.3zm-25.2-22.8c-0.9 0-1.8-0.4-2.4-1.1-4-4.1-7.9-8.4-11.5-12.8-1.2-1.5-1-3.6 0.4-4.8 1.4-1.2 3.6-1 4.7 0.5 3.6 4.2 7.4 8.4 11.2 12.5 1.3 1.3 1.3 3.4-0.1 4.7-0.6 0.6-1.5 1-2.3 1zm-21.8-26.2c-1 0-2.1-0.4-2.7-1.4-3.4-4.6-6.6-9.4-9.6-14.3-1-1.5-0.5-3.6 1-4.6 1.6-1 3.7-0.5 4.7 1.1 2.9 4.7 6.1 9.4 9.3 13.9 1.1 1.5 0.8 3.6-0.7 4.7-0.6 0.4-1.3 0.6-2 0.6zm-18-28.8c-1.2 0-2.4-0.7-3-1.8-1.7-3.2-3.4-6.6-5-9.9q-1.3-2.8-2.6-5.6c-0.7-1.7 0-3.7 1.7-4.4 1.7-0.8 3.7 0 4.5 1.7q1.2 2.7 2.5 5.4c1.6 3.3 3.2 6.5 4.9 9.6 0.9 1.7 0.2 3.7-1.4 4.6q-0.8 0.4-1.6 0.4zm-13.9-31c-1.4 0-2.7-0.9-3.2-2.2-2-5.4-3.8-10.9-5.4-16.4-0.6-1.8 0.5-3.7 2.2-4.2 1.8-0.5 3.7 0.5 4.2 2.3 1.6 5.3 3.4 10.7 5.3 15.9 0.7 1.8-0.2 3.7-2 4.3q-0.6 0.3-1.1 0.3zm-9.7-32.7c-1.5 0-2.9-1-3.3-2.6-1.2-5.6-2.2-11.3-3.1-17-0.3-1.8 1-3.5 2.8-3.8 1.9-0.3 3.6 1 3.9 2.8 0.8 5.6 1.8 11.1 3 16.5 0.4 1.8-0.7 3.6-2.5 4q-0.4 0.1-0.8 0.1zm-5-33.6c-1.8 0-3.2-1.4-3.4-3.1-0.4-5.7-0.7-11.5-0.8-17.2 0-1.9 1.5-3.4 3.4-3.5 1.8 0.1 3.4 1.5 3.4 3.4 0 5.6 0.3 11.2 0.7 16.7 0.2 1.9-1.2 3.5-3 3.7q-0.2 0-0.3 0z"/>
					<path id="&lt;Path&gt;" class="s57" d="m2237 1058.4q-0.1 0-0.2-0.1c-1.8-0.1-3.2-1.7-3.1-3.5q0.2-4.3 0.6-8.5c0.2-1.8 1.8-3.2 3.7-3 1.8 0.1 3.2 1.8 3 3.6q-0.4 4.1-0.6 8.3c-0.1 1.8-1.6 3.2-3.4 3.2z"/>
				</g>
				<g id="&lt;Group&gt;" style="opacity: .6">
					<path id="&lt;Path&gt;" class="s58" d="m2322 885c-1 0-1.9-0.4-2.6-1.2-1.2-1.4-1-3.5 0.4-4.7q3.2-2.8 6.5-5.5c1.4-1.2 3.6-1 4.7 0.5 1.2 1.4 1 3.5-0.5 4.7q-3.2 2.6-6.3 5.4c-0.7 0.5-1.4 0.8-2.2 0.8z"/>
					<path id="&lt;Compound Path&gt;" class="s59" d="m2734 1081.5q-0.1 0-0.1 0c-1.9-0.1-3.3-1.7-3.3-3.5q0.2-4.5 0.2-9 0-3.7-0.1-7.5c-0.1-1.9 1.4-3.4 3.2-3.5 2 0 3.4 1.4 3.5 3.3q0.1 3.8 0.1 7.7 0 4.6-0.1 9.2c-0.1 1.8-1.6 3.3-3.4 3.3zm-1.1-33.5c-1.7 0-3.1-1.3-3.3-3-0.5-5.5-1.3-11-2.2-16.4-0.3-1.8 0.9-3.6 2.8-3.9 1.8-0.3 3.5 1 3.9 2.8 0.9 5.6 1.6 11.2 2.2 16.8 0.2 1.9-1.2 3.5-3 3.7q-0.2 0-0.4 0zm-5.5-33c-1.5 0-2.9-1-3.3-2.6-1.3-5.3-2.7-10.7-4.4-15.9-0.5-1.8 0.5-3.7 2.3-4.2 1.7-0.6 3.6 0.4 4.2 2.2 1.6 5.4 3.2 10.9 4.5 16.4 0.4 1.8-0.7 3.6-2.5 4q-0.4 0.1-0.8 0.1zm-10-32c-1.3 0-2.6-0.8-3.1-2.1-2-5.1-4.2-10.2-6.5-15.2-0.8-1.7 0-3.7 1.7-4.5 1.6-0.8 3.6 0 4.4 1.6 2.4 5.2 4.7 10.4 6.7 15.7 0.6 1.7-0.2 3.6-1.9 4.3q-0.7 0.2-1.3 0.2zm-14.1-30.3c-1.2 0-2.3-0.7-2.9-1.8-2.7-4.8-5.5-9.6-8.5-14.2-1-1.5-0.5-3.6 1-4.6 1.6-1 3.7-0.6 4.7 1 3 4.7 5.9 9.6 8.7 14.6 0.9 1.6 0.3 3.7-1.4 4.6q-0.8 0.4-1.6 0.4zm-18-28.2c-1.1 0-2.1-0.5-2.7-1.4-3.3-4.4-6.8-8.8-10.3-12.9-1.2-1.4-1-3.6 0.4-4.8 1.4-1.2 3.5-1 4.7 0.4 3.7 4.3 7.2 8.8 10.6 13.3 1.1 1.5 0.8 3.6-0.7 4.7-0.6 0.5-1.3 0.7-2 0.7zm-21.7-25.5c-0.9 0-1.7-0.4-2.4-1-3.8-4-7.8-7.8-11.9-11.5-1.4-1.2-1.5-3.3-0.3-4.7 1.3-1.4 3.4-1.5 4.8-0.3 4.2 3.8 8.3 7.7 12.2 11.8 1.3 1.3 1.3 3.4-0.1 4.7-0.6 0.7-1.4 1-2.3 1zm-24.9-22.4c-0.7 0-1.5-0.2-2.1-0.7-4.3-3.3-8.8-6.6-13.3-9.7-1.6-1-2-3.1-0.9-4.7 1-1.5 3.1-1.9 4.6-0.9 4.7 3.2 9.3 6.6 13.8 10 1.4 1.2 1.7 3.3 0.5 4.7-0.6 0.9-1.6 1.3-2.6 1.3zm-296.9-7.1c-1.1 0-2.1-0.5-2.8-1.5-1.1-1.5-0.7-3.6 0.8-4.7 4.6-3.2 9.4-6.3 14.2-9.3 1.6-0.9 3.7-0.4 4.6 1.2 1 1.5 0.5 3.6-1.1 4.6-4.7 2.8-9.3 5.9-13.8 9-0.6 0.5-1.3 0.7-1.9 0.7zm269.2-11.6c-0.6 0-1.2-0.2-1.7-0.5-4.8-2.8-9.6-5.4-14.6-7.8-1.6-0.9-2.3-2.9-1.5-4.6 0.9-1.6 2.9-2.3 4.5-1.5 5.1 2.5 10.1 5.3 15 8.1 1.6 0.9 2.1 3 1.2 4.6-0.6 1.1-1.8 1.7-2.9 1.7zm-240.7-5.9c-1.2 0-2.3-0.6-2.9-1.8-0.9-1.6-0.3-3.6 1.4-4.5q3.8-2 7.7-3.8 3.8-1.9 7.6-3.5c1.7-0.8 3.7 0 4.4 1.7 0.8 1.7 0 3.7-1.7 4.4q-3.7 1.7-7.4 3.4-3.8 1.8-7.5 3.8-0.8 0.4-1.6 0.3zm210.7-9q-0.7 0-1.3-0.3c-5-2.1-10.3-4.1-15.4-5.8-1.8-0.6-2.7-2.5-2.2-4.3 0.6-1.8 2.6-2.7 4.3-2.1 5.4 1.8 10.7 3.8 15.9 6 1.7 0.7 2.5 2.7 1.8 4.4-0.5 1.3-1.8 2.1-3.1 2.1zm-180-4.4c-1.4 0-2.7-0.9-3.2-2.2-0.6-1.8 0.3-3.7 2.1-4.4 5.3-1.9 10.7-3.6 16.1-5.2 1.8-0.5 3.7 0.5 4.2 2.3 0.5 1.8-0.6 3.7-2.3 4.2-5.3 1.5-10.6 3.2-15.8 5.1q-0.5 0.2-1.1 0.2zm148.3-6.4q-0.4 0-0.9-0.1c-5.3-1.4-10.7-2.7-16.1-3.7-1.8-0.4-3-2.2-2.6-4 0.3-1.8 2.1-3 3.9-2.6 5.6 1 11.1 2.3 16.6 3.8 1.8 0.5 2.8 2.3 2.4 4.1-0.4 1.5-1.8 2.5-3.3 2.5zm-116.1-2.9c-1.6 0-3-1-3.3-2.6-0.4-1.8 0.8-3.6 2.6-4 5.5-1.2 11.1-2.2 16.7-3 1.8-0.3 3.5 1 3.8 2.8 0.3 1.8-1 3.6-2.9 3.8-5.4 0.8-10.8 1.8-16.2 3q-0.4 0-0.7 0zm83.3-3.5q-0.2 0-0.5-0.1c-5.4-0.6-10.9-1.2-16.4-1.5-1.9-0.1-3.3-1.7-3.2-3.5 0.1-1.9 1.7-3.3 3.6-3.2 5.6 0.3 11.3 0.9 16.9 1.6 1.8 0.2 3.1 1.9 2.9 3.7-0.2 1.7-1.7 3-3.3 3zm-50.2-1.3c-1.7 0-3.2-1.3-3.3-3.1-0.2-1.8 1.2-3.5 3.1-3.6 5.6-0.4 11.3-0.7 16.9-0.7 1.9 0 3.4 1.5 3.4 3.3 0 1.9-1.5 3.4-3.3 3.4-5.5 0-11.1 0.3-16.5 0.7q-0.2 0-0.3 0z"/>
					<path id="&lt;Path&gt;" class="s60" d="m2731.8 1106.6q-0.2 0-0.5 0c-1.8-0.3-3.1-2-2.8-3.8q0.5-4.1 1-8.2c0.1-1.9 1.7-3.2 3.7-3 1.8 0.2 3.1 1.8 2.9 3.7q-0.4 4.2-1 8.4c-0.2 1.7-1.7 2.9-3.3 2.9z"/>
				</g>
				<g id="&lt;Group&gt;">
					<path id="&lt;Compound Path&gt;" class="s61" d="m2680.9 1174c-0.5 1.4-1.9 2.3-3.3 2.2l-42.1-1.6c-11.1 16.2-24.9 30.8-41.1 43l3.5 41.9c0.1 1.5-0.7 2.9-2.1 3.5l-46.2 20.3c-1.4 0.6-2.9 0.3-3.9-0.8l-28.6-30.9c-19.9 3.8-40 4.1-59.5 1.3l-27.2 32.2c-0.9 1.1-2.5 1.5-3.9 1l-47.1-18.3c-1.3-0.6-2.2-1.9-2.2-3.4l1.7-42.1c-16.3-11.1-30.8-24.9-43-41.1l-42 3.5c-1.4 0.2-2.8-0.7-3.4-2l-20.4-46.3c-0.6-1.3-0.2-2.9 0.8-3.9l30.9-28.6c-3.7-19.9-4-39.9-1.3-59.4l-32.1-27.2c-1.1-1-1.5-2.5-1-3.9l18.3-47.1c0.5-1.4 1.9-2.3 3.4-2.2l42 1.6c11.2-16.2 24.9-30.8 41.1-43l-3.5-41.9c-0.1-1.5 0.7-2.9 2.1-3.5l46.2-20.3c1.4-0.6 2.9-0.3 4 0.8l28.5 30.9c19.9-3.7 40-4.1 59.5-1.3l27.2-32.2c0.9-1.1 2.5-1.5 3.9-0.9l47.1 18.2c1.4 0.6 2.2 1.9 2.2 3.4l-1.6 42.1c16.2 11.1 30.8 24.9 42.9 41.1l42-3.5c1.4-0.1 2.8 0.7 3.4 2l20.4 46.3c0.6 1.3 0.3 2.9-0.8 3.9l-30.9 28.6c3.7 19.9 4 40 1.3 59.4l32.1 27.2c1.1 1 1.5 2.6 1 3.9z"/>
					<path id="&lt;Compound Path&gt;" fill-rule="evenodd" class="s1" d="m2483.4 1118.4q-3 0-6-0.4c-12.8-1.6-24.2-8-32.1-18.2-7.9-10.2-11.4-22.8-9.9-35.6 1.6-12.8 8.1-24.2 18.3-32.1 10.1-7.9 22.7-11.4 35.5-9.8 12.8 1.6 24.2 8.1 32.1 18.2 16.4 21 12.6 51.3-8.3 67.7-8.6 6.7-18.9 10.2-29.6 10.2zm-0.2-89.7c-9.2 0-18 3-25.4 8.7-8.7 6.8-14.3 16.7-15.7 27.7-1.3 11 1.7 21.8 8.5 30.6 6.8 8.7 16.6 14.3 27.6 15.6 11 1.4 21.9-1.6 30.6-8.4 8.8-6.8 14.3-16.6 15.7-27.6 1.3-11-1.7-21.9-8.5-30.7-6.8-8.7-16.6-14.3-27.6-15.6q-2.6-0.3-5.2-0.3z"/>
					<path id="&lt;Path&gt;" class="s1" d="m2482.5 1195.1c-48.2 0-94.2-27.9-114.9-74.8-7.2-16.3-10.6-33.4-10.6-50.3 0-48.1 27.9-94.2 74.8-114.8 30.6-13.5 64.6-14.2 95.8-2.1 31.2 12.1 55.8 35.6 69.3 66.3 3.3 7.5 5.9 15.4 7.7 23.4q0.2 1 0.4 2 0.1 0.3 0.1 0.6c0 1.6-1.1 3-2.7 3.3-1.8 0.4-3.6-0.8-4-2.6-1.7-8.2-4.2-16.3-7.6-24-12.1-27.4-33.5-48.8-60.7-60.7q-2.4-1.1-4.9-2c-29.5-11.5-61.7-10.8-90.7 2-44.3 19.5-70.8 63-70.8 108.6 0 15.9 3.3 32.1 10.1 47.6 26.3 59.8 96.4 87.1 156.3 60.7 19.6-8.6 36.5-22.4 48.9-39.9 1.1-1.5 3.2-1.8 4.7-0.8 0.9 0.7 1.4 1.7 1.4 2.8 0 0.6-0.2 1.3-0.6 1.9-13.1 18.5-31 33-51.7 42.2-16.4 7.2-33.5 10.6-50.3 10.6z"/>
				</g>
			</g>
		</g>
	</g>
</svg>